<?xml version="1.0" encoding="utf-8"?>
<!-- Generator: Adobe Illustrator 21.1.0, SVG Export Plug-In . SVG Version: 6.00 Build 0)  -->
<svg version="1.1" id="Capa_1" xmlns="http://www.w3.org/2000/svg" xmlns:xlink="http://www.w3.org/1999/xlink" x="0px" y="0px"
	 viewBox="0 0 512 512" style="enable-background:new 0 0 512 512;" xml:space="preserve">
<style type="text/css">
	.st0{fill:#3C2826;}
</style>
<g>
	<path class="st0" d="M194.3,274.3c-5.7-2.6-13.7-4-23.9-4h-51.3V334h50.5c10.4,0,18.4-1.4,24.2-4.2c10.4-5.2,15.7-15.1,15.7-29.8
		C209.5,287.5,204.4,278.9,194.3,274.3z"/>
	<path class="st0" d="M194.9,224.8c6.5-3.9,9.7-10.9,9.7-21c0-11.1-4.3-18.5-12.8-22c-7.4-2.5-16.8-3.7-28.2-3.7h-44.5v52.7h50.6
		C180.1,230.7,188.5,228.8,194.9,224.8z"/>
	<path class="st0" d="M389.6,238.5c-7.1-6.2-16-9.3-26.5-9.3c-11.5,0-20.4,3.3-26.7,9.8c-6.4,6.5-10.3,15.3-11.9,26.5h77.1v0
		C400.7,253.6,396.7,244.6,389.6,238.5z"/>
	<path class="st0" d="M256,0L256,0C114.6,0,0,114.6,0,256v0c0,141.4,114.6,256,256,256h0c141.4,0,256-114.6,256-256v0
		C512,114.6,397.4,0,256,0z M314.6,146.4h96.2v23.9h0h-96.2V146.4z M249.2,341.5c-4.5,7.4-10.1,13.7-16.9,18.8
		c-7.6,5.8-16.6,9.9-27,12c-10.4,2.1-21.6,3.2-33.7,3.2H64V136.5h115.4c29.1,0.5,49.7,8.9,61.9,25.4c7.3,10.1,10.9,22.3,10.9,36.5
		c0,14.6-3.7,26.3-11,35.2c-4.1,5-10.2,9.5-18.2,13.6c12.2,4.5,21.4,11.5,27.5,21.1c6.2,9.6,9.3,21.3,9.3,35
		C259.8,317.5,256.3,330.2,249.2,341.5z M448,295H323.3c0.7,17.2,6.6,29.2,17.9,36.1c6.8,4.3,15,6.4,24.7,6.4
		c10.2,0,18.5-2.6,24.8-7.9c3.5-2.8,6.5-6.8,9.2-11.7h45.7c-1.2,10.2-6.7,20.5-16.6,30.9c-15.3,16.6-36.8,25-64.4,25
		c-22.8,0-42.9-7-60.3-21.1c-17.4-14.1-26.1-36.9-26.1-68.6c0-29.7,7.8-52.4,23.5-68.2c15.8-15.8,36.1-23.7,61.2-23.7
		c14.9,0,28.3,2.7,40.2,8c11.9,5.4,21.8,13.8,29.5,25.3c7,10.2,11.5,22,13.6,35.4C447.6,268.9,448.2,280.2,448,295z"/>
</g>
</svg>
