<?xml version="1.0" encoding="UTF-8"?>
<svg width="259px" height="88px" viewBox="0 0 259 88" version="1.1" xmlns="http://www.w3.org/2000/svg" xmlns:xlink="http://www.w3.org/1999/xlink">
    <!-- Generator: Sketch 50.2 (55047) - http://www.bohemiancoding.com/sketch -->
    <title>Group 6</title>
    <desc>Created with Sketch.</desc>
    <defs></defs>
    <g id="Spectramed-" stroke="none" stroke-width="1" fill="none" fill-rule="evenodd">
        <g id="PhysicalTherapyBackground-Copy-2" transform="translate(-27.000000, -1714.000000)">
            <g id="Group-6" transform="translate(24.000000, 1710.000000)">
                <g id="Group-8" transform="translate(0.000000, 1.000000)">
                    <g id="Group-6-Copy-2" transform="translate(47.022601, 47.022601) rotate(-45.000000) translate(-47.022601, -47.022601) translate(-6.477399, 34.022601)">
                        <circle id="Oval-3" fill="#3A82AE" cx="13" cy="13" r="10"></circle>
                        <circle id="Oval-3-Copy-4" fill="#F1D7A2" cx="33.5" cy="13.5" r="1.5"></circle>
                        <circle id="Oval-3-Copy-7" fill="#F1D7A2" cx="48.5" cy="13.5" r="1.5"></circle>
                        <circle id="Oval-3-Copy-10" fill="#F1D7A2" cx="63.5" cy="13.5" r="1.5"></circle>
                        <circle id="Oval-3-Copy-5" fill="#F1D7A2" cx="38.5" cy="13.5" r="1.5"></circle>
                        <circle id="Oval-3-Copy-8" fill="#F1D7A2" cx="53.5" cy="13.5" r="1.5"></circle>
                        <circle id="Oval-3-Copy-11" fill="#F1D7A2" cx="68.5" cy="13.5" r="1.5"></circle>
                        <circle id="Oval-3-Copy-6" fill="#F1D7A2" cx="43.5" cy="13.5" r="1.5"></circle>
                        <circle id="Oval-3-Copy-9" fill="#F1D7A2" cx="58.5" cy="13.5" r="1.5"></circle>
                        <circle id="Oval-3-Copy-12" fill="#F1D7A2" cx="73.5" cy="13.5" r="1.5"></circle>
                        <circle id="Oval-3-Copy-2" stroke="#F1D7A2" stroke-width="2" cx="13" cy="13" r="14"></circle>
                        <circle id="Oval-3-Copy-3" stroke="#F1D7A2" stroke-width="2" cx="94" cy="13" r="14"></circle>
                        <circle id="Oval-3-Copy" fill="#3A82AE" cx="94" cy="13" r="10"></circle>
                    </g>
                </g>
                <g id="Group-8-Copy" transform="translate(104.500000, 47.500000) scale(1, -1) translate(-104.500000, -47.500000) translate(57.000000, 0.000000)">
                    <g id="Group-6-Copy-2" transform="translate(47.022601, 47.022601) rotate(-45.000000) translate(-47.022601, -47.022601) translate(-6.477399, 34.022601)">
                        <circle id="Oval-3" fill="#3A82AE" cx="13" cy="13" r="10"></circle>
                        <circle id="Oval-3-Copy-4" fill="#F1D7A2" cx="33.5" cy="13.5" r="1.5"></circle>
                        <circle id="Oval-3-Copy-7" fill="#F1D7A2" cx="48.5" cy="13.5" r="1.5"></circle>
                        <circle id="Oval-3-Copy-10" fill="#F1D7A2" cx="63.5" cy="13.5" r="1.5"></circle>
                        <circle id="Oval-3-Copy-5" fill="#F1D7A2" cx="38.5" cy="13.5" r="1.5"></circle>
                        <circle id="Oval-3-Copy-8" fill="#F1D7A2" cx="53.5" cy="13.5" r="1.5"></circle>
                        <circle id="Oval-3-Copy-11" fill="#F1D7A2" cx="68.5" cy="13.5" r="1.5"></circle>
                        <circle id="Oval-3-Copy-6" fill="#F1D7A2" cx="43.5" cy="13.5" r="1.5"></circle>
                        <circle id="Oval-3-Copy-9" fill="#F1D7A2" cx="58.5" cy="13.5" r="1.5"></circle>
                        <circle id="Oval-3-Copy-12" fill="#F1D7A2" cx="73.5" cy="13.5" r="1.5"></circle>
                        <circle id="Oval-3-Copy-2" stroke="#F1D7A2" stroke-width="2" cx="13" cy="13" r="14"></circle>
                        <circle id="Oval-3-Copy-3" stroke="#F1D7A2" stroke-width="2" cx="94" cy="13" r="14"></circle>
                        <circle id="Oval-3-Copy" fill="#3A82AE" cx="94" cy="13" r="10"></circle>
                    </g>
                </g>
                <g id="Group-8-Copy-3" transform="translate(218.500000, 47.500000) scale(1, -1) translate(-218.500000, -47.500000) translate(171.000000, 0.000000)">
                    <g id="Group-6-Copy-2" transform="translate(47.022601, 47.022601) rotate(-45.000000) translate(-47.022601, -47.022601) translate(-6.477399, 34.022601)">
                        <circle id="Oval-3" fill="#3A82AE" cx="13" cy="13" r="10"></circle>
                        <circle id="Oval-3-Copy-4" fill="#F1D7A2" cx="33.5" cy="13.5" r="1.5"></circle>
                        <circle id="Oval-3-Copy-7" fill="#F1D7A2" cx="48.5" cy="13.5" r="1.5"></circle>
                        <circle id="Oval-3-Copy-10" fill="#F1D7A2" cx="63.5" cy="13.5" r="1.5"></circle>
                        <circle id="Oval-3-Copy-5" fill="#F1D7A2" cx="38.5" cy="13.5" r="1.5"></circle>
                        <circle id="Oval-3-Copy-8" fill="#F1D7A2" cx="53.5" cy="13.5" r="1.5"></circle>
                        <circle id="Oval-3-Copy-11" fill="#F1D7A2" cx="68.5" cy="13.5" r="1.5"></circle>
                        <circle id="Oval-3-Copy-6" fill="#F1D7A2" cx="43.5" cy="13.5" r="1.5"></circle>
                        <circle id="Oval-3-Copy-9" fill="#F1D7A2" cx="58.5" cy="13.5" r="1.5"></circle>
                        <circle id="Oval-3-Copy-12" fill="#F1D7A2" cx="73.5" cy="13.5" r="1.5"></circle>
                        <circle id="Oval-3-Copy-2" stroke="#F1D7A2" stroke-width="2" cx="13" cy="13" r="14"></circle>
                        <circle id="Oval-3-Copy-3" stroke="#F1D7A2" stroke-width="2" cx="94" cy="13" r="14"></circle>
                        <circle id="Oval-3-Copy" fill="#3A82AE" cx="94" cy="13" r="10"></circle>
                    </g>
                </g>
                <g id="Group-8-Copy-2" transform="translate(114.000000, 1.000000)">
                    <g id="Group-6-Copy-2" transform="translate(47.022601, 47.022601) rotate(-45.000000) translate(-47.022601, -47.022601) translate(-6.477399, 34.022601)">
                        <circle id="Oval-3" fill="#3A82AE" cx="13" cy="13" r="10"></circle>
                        <circle id="Oval-3-Copy-4" fill="#F1D7A2" cx="33.5" cy="13.5" r="1.5"></circle>
                        <circle id="Oval-3-Copy-7" fill="#F1D7A2" cx="48.5" cy="13.5" r="1.5"></circle>
                        <circle id="Oval-3-Copy-10" fill="#F1D7A2" cx="63.5" cy="13.5" r="1.5"></circle>
                        <circle id="Oval-3-Copy-5" fill="#F1D7A2" cx="38.5" cy="13.5" r="1.5"></circle>
                        <circle id="Oval-3-Copy-8" fill="#F1D7A2" cx="53.5" cy="13.5" r="1.5"></circle>
                        <circle id="Oval-3-Copy-11" fill="#F1D7A2" cx="68.5" cy="13.5" r="1.5"></circle>
                        <circle id="Oval-3-Copy-6" fill="#F1D7A2" cx="43.5" cy="13.5" r="1.5"></circle>
                        <circle id="Oval-3-Copy-9" fill="#F1D7A2" cx="58.5" cy="13.5" r="1.5"></circle>
                        <circle id="Oval-3-Copy-12" fill="#F1D7A2" cx="73.5" cy="13.5" r="1.5"></circle>
                        <circle id="Oval-3-Copy-2" stroke="#F1D7A2" stroke-width="2" cx="13" cy="13" r="14"></circle>
                        <circle id="Oval-3-Copy-3" stroke="#F1D7A2" stroke-width="2" cx="94" cy="13" r="14"></circle>
                        <circle id="Oval-3-Copy" fill="#3A82AE" cx="94" cy="13" r="10"></circle>
                    </g>
                </g>
            </g>
        </g>
    </g>
</svg>