<?xml version="1.0" encoding="utf-8"?>
<!-- Generator: Adobe Illustrator 21.1.0, SVG Export Plug-In . SVG Version: 6.00 Build 0)  -->
<svg version="1.1" id="Layer_1" xmlns="http://www.w3.org/2000/svg" xmlns:xlink="http://www.w3.org/1999/xlink" x="0px" y="0px"
	 viewBox="0 0 512 512" style="enable-background:new 0 0 512 512;" xml:space="preserve">
<style type="text/css">
	.st0{fill:#3C2826;}
</style>
<g>
	<path class="st0" d="M371.1,125.8C328.5,87.9,270,73.3,214.5,86.7c4.8,6.4,36.5,49.6,65.1,102.1C341.7,165.6,368,130.2,371.1,125.8
		z"/>
	<path class="st0" d="M304.7,240c1.3,3,2.6,6,3.8,9c58-7.3,115.8,4.4,121.5,5.6c-0.4-39.6-14.3-78-39.5-108.7
		c-3.7,5-32.9,42.5-97.4,68.8C297.2,223,301.1,231.5,304.7,240z"/>
	<path class="st0" d="M267.6,257.8c2.3-0.7,4.6-1.4,6.9-2.1c-4.4-9.9-9.2-19.8-14.2-29.6c-87.1,26.1-171.7,25-179.3,24.8
		c-0.1,1.8-0.1,3.6-0.1,5.3c0.1,43.1,16,84.7,44.9,116.7C129.7,366.2,177.6,286.9,267.6,257.8z"/>
	<path class="st0" d="M245.9,199.3c-28.9-51.4-60.1-94.6-64.7-100.9c-48.8,23-85.3,68-96.6,122.2C92.5,220.7,164.3,221,245.9,199.3z
		"/>
	<path class="st0" d="M285.2,285c-98.4,34.3-133.7,102.6-136.9,109c50,38.9,117,47.7,175.3,23c-2.6-15.3-12.7-68.7-37.2-132.3
		C286,284.7,285.6,284.9,285.2,285z"/>
	<path class="st0" d="M256,0.1c-141.4,0-256,114.6-256,256s114.6,256,256,256s256-114.6,256-256S397.4,0.1,256,0.1z M255.5,460.3
		c-112.6,0-204.3-91.7-204.3-204.3S142.8,51.7,255.5,51.7S459.8,143.4,459.8,256S368.1,460.3,255.5,460.3z"/>
	<path class="st0" d="M319,276.5c22.8,62.7,32.1,113.8,33.9,124.4c39.2-26.4,67-68.4,74.8-116.9C421.8,282.1,373.7,267.8,319,276.5z
		"/>
</g>
</svg>
