<?xml version="1.0" encoding="utf-8"?>
<!-- Generator: Adobe Illustrator 21.1.0, SVG Export Plug-In . SVG Version: 6.00 Build 0)  -->
<svg version="1.1" id="Layer_1" xmlns="http://www.w3.org/2000/svg" xmlns:xlink="http://www.w3.org/1999/xlink" x="0px" y="0px"
	 viewBox="0 0 300 300" style="enable-background:new 0 0 300 300;" xml:space="preserve">
<style type="text/css">
	.st0{opacity:0.25;fill:none;stroke:#FEF4E8;stroke-width:2;stroke-miterlimit:10;}
</style>
<title>Artboard 1</title>
<line class="st0" x1="-167" y1="185" x2="164" y2="-146"/>
<line class="st0" x1="-156" y1="196" x2="175" y2="-135"/>
<line class="st0" x1="-143.5" y1="208.5" x2="187.5" y2="-122.5"/>
<line class="st0" x1="-132.5" y1="219.5" x2="198.5" y2="-111.5"/>
<line class="st0" x1="-120.5" y1="231.5" x2="210.5" y2="-99.5"/>
<line class="st0" x1="-109.5" y1="242.5" x2="221.5" y2="-88.5"/>
<line class="st0" x1="-97" y1="255" x2="234" y2="-76"/>
<line class="st0" x1="-86" y1="266" x2="245" y2="-65"/>
<line class="st0" x1="-72" y1="280" x2="259" y2="-51"/>
<line class="st0" x1="-61" y1="291" x2="270" y2="-40"/>
<line class="st0" x1="-48.5" y1="303.5" x2="282.5" y2="-27.5"/>
<line class="st0" x1="-37.5" y1="314.5" x2="293.5" y2="-16.5"/>
<line class="st0" x1="-25.5" y1="326.5" x2="305.5" y2="-4.5"/>
<line class="st0" x1="-14.5" y1="337.5" x2="316.5" y2="6.5"/>
<line class="st0" x1="-2" y1="350" x2="329" y2="19"/>
<line class="st0" x1="9" y1="361" x2="340" y2="30"/>
<line class="st0" x1="20" y1="372" x2="351" y2="41"/>
<line class="st0" x1="31" y1="383" x2="362" y2="52"/>
<line class="st0" x1="43.5" y1="395.5" x2="374.5" y2="64.5"/>
<line class="st0" x1="54.5" y1="406.5" x2="385.5" y2="75.5"/>
<line class="st0" x1="66.5" y1="418.5" x2="397.5" y2="87.5"/>
<line class="st0" x1="77.5" y1="429.5" x2="408.5" y2="98.5"/>
<line class="st0" x1="90" y1="442" x2="421" y2="111"/>
<line class="st0" x1="101" y1="453" x2="432" y2="122"/>
<line class="st0" x1="115" y1="467" x2="446" y2="136"/>
</svg>
