<?xml version="1.0" encoding="utf-8"?>
<!-- Generator: Adobe Illustrator 21.1.0, SVG Export Plug-In . SVG Version: 6.00 Build 0)  -->
<svg version="1.1" id="Capa_1" xmlns="http://www.w3.org/2000/svg" xmlns:xlink="http://www.w3.org/1999/xlink" x="0px" y="0px"
	 viewBox="0 0 512 512" style="enable-background:new 0 0 512 512;" xml:space="preserve">
<style type="text/css">
	.st0{fill:#3C2826;}
</style>
<g>
	<path class="st0" d="M276.3,231.2v-0.7c-0.1,0.2-0.3,0.5-0.5,0.7H276.3z"/>
	<path class="st0" d="M256,0L256,0C115.2,0,0,115.2,0,256v0c0,140.8,115.2,256,256,256h0c140.8,0,256-115.2,256-256v0
		C512,115.2,396.8,0,256,0z M163.7,417.5H91.3V199.6h72.4V417.5z M127.5,169.8H127c-24.3,0-40-16.8-40-37.7
		c0-21.4,16.2-37.6,41-37.6c24.8,0,40,16.3,40.5,37.6C168.5,153.1,152.8,169.8,127.5,169.8z M425,417.5h-72.4V300.9
		c0-29.3-10.5-49.3-36.7-49.3c-20,0-31.9,13.5-37.2,26.5c-1.9,4.7-2.4,11.1-2.4,17.7v121.7h-72.5c0,0,1-197.5,0-217.9h72.5v30.9
		c9.6-14.8,26.8-36,65.3-36c47.7,0,83.4,31.1,83.4,98.1V417.5z"/>
</g>
</svg>
